<svg width="29" height="26" viewBox="0 0 29 26" fill="none" xmlns="http://www.w3.org/2000/svg">
    <path fill-rule="evenodd" clip-rule="evenodd" d="M9.14429 22.0615L9.83703 21.1671H14.9633L17.6353 24.5821L17.1603 25.7408H10.5496L10.7079 24.5821L9.14429 22.0615Z" fill="#169FCC" />
    <path fill-rule="evenodd" clip-rule="evenodd" d="M10.7114 10.4172L13.1866 6.1395H16.071L28.9997 21.1618L27.9973 25.7408H22.4535L22.8013 24.4555L10.7114 10.4172Z" fill="#14B59A" />
    <path fill-rule="evenodd" clip-rule="evenodd" d="M13.7165 5.32673L14.9017 3.1342L18.4574 0.259094L24.5498 5.03715L23.7596 5.84384L24.8201 7.31242V8.88442L21.7843 11.3665L16.6899 5.32673H13.7165Z" fill="#1BC263" />
    <path fill-rule="evenodd" clip-rule="evenodd" d="M4.30113 14.8803H5.9115L10.1107 11.3665L15.6757 17.835L14.1061 20.1908H8.96918L5.42227 24.7027L4.6069 25.7409H0V20.2108L4.30113 14.8803Z" fill="#16BDCC" />
</svg>
    