<svg width="100" height="16" viewBox="0 0 100 16" fill="none" xmlns="http://www.w3.org/2000/svg">
    <path fill-rule="evenodd" clip-rule="evenodd" d="M23.8398 0.833862C25.3836 0.833862 26.0993 1.04033 26.6573 1.53163C27.552 2.28763 28.2011 3.59845 28.2011 7.99998C28.2011 12.3814 27.552 13.6912 26.6573 14.4694C26.0993 14.9607 25.3836 15.1661 23.8398 15.1661H18.9872C17.4445 15.1661 16.7298 14.9607 16.1707 14.4694C15.276 13.6912 14.628 12.3814 14.628 7.99998C14.628 3.59845 15.276 2.28763 16.1707 1.53163C16.7298 1.04033 17.4445 0.833862 18.9872 0.833862H23.8398ZM18.8538 12.32C19.0105 12.4428 19.2117 12.5042 19.9274 12.5042H22.9006C23.6164 12.5243 23.8176 12.4428 23.9743 12.32C24.1754 12.1357 24.4666 11.6243 24.4666 7.99998C24.4666 4.35657 24.1754 3.8441 23.9743 3.67998C23.8176 3.53704 23.6164 3.47457 22.9006 3.47457H19.9274C19.2117 3.47457 19.0105 3.53704 18.8538 3.67998C18.6526 3.8441 18.3625 4.35657 18.3625 7.99998C18.3625 11.6434 18.6526 12.1357 18.8538 12.32Z" fill="white" />
    <path d="M9.34587 0.834286L4.60552 6.54664H3.6441V0.834286H-0.000366211V15.1655H3.6441V9.08464H4.64999L9.34587 15.1655H13.6394L7.57869 7.56946L13.3927 0.834286H9.34587Z" fill="white" />
    <path d="M41.2866 9.86277V7.18712L44.7754 13.2298V15.1654H41.8234C40.9964 15.1654 40.6163 14.961 40.2129 14.3067L34.8246 5.46124H34.6011V15.1654H31.1134V0.83418H34.5344C35.3836 0.83418 35.7415 1.01842 36.1438 1.695L41.0631 9.86277H41.2866Z" fill="white" />
    <path d="M44.4248 8.81263V6.13698H44.6482L49.5675 14.3047C49.9699 14.9813 50.3277 15.1656 51.1769 15.1656H54.598V0.834392H51.1102V10.5385H50.8868L45.4984 1.6931C45.095 1.03874 44.7149 0.834392 43.888 0.834392H40.936V2.76992L44.4248 8.81263Z" fill="white" />
    <path d="M57.6931 15.1656H69.4323V12.5249H61.3376V9.06463H67.644V6.54674H61.3376V3.4751H69.4323V0.834392H57.6931V15.1656Z" fill="white" />
    <path d="M83.5247 14.4697C82.9657 14.961 82.2721 15.1654 80.7072 15.1654H75.9224C74.3786 15.1654 73.6639 14.961 73.1048 14.4697C72.2101 13.6915 71.5621 12.3807 71.5621 8.0003C71.5621 3.59771 72.2101 2.28794 73.1048 1.53089C73.6639 1.03959 74.3786 0.83418 75.9224 0.83418H80.7072C82.2721 0.83418 82.9657 1.03959 83.5247 1.53089C84.3517 2.24771 84.7328 3.33194 84.7773 6.015H81.2895C81.2218 4.233 81.0206 3.84442 80.8417 3.6803C80.685 3.53736 80.4838 3.47489 79.768 3.47489H76.8615C76.1458 3.47489 75.9446 3.53736 75.7879 3.6803C75.5867 3.84442 75.2966 4.35583 75.2966 8.0003C75.2966 11.6437 75.5867 12.1361 75.7879 12.3203C75.9446 12.4431 76.1458 12.5045 76.8615 12.5045H79.768C80.4838 12.5247 80.685 12.4431 80.8417 12.3203C81.0206 12.1551 81.2218 11.8078 81.2895 9.82147H84.7995C84.7095 12.7089 84.3517 13.7529 83.5247 14.4697Z" fill="white" />
    <path d="M94.6424 15.1661V3.4968H99.4505V0.833862H86.2353V3.4968H90.9979V15.1661H94.6424Z" fill="white" />
</svg>
    